<svg width="24" height="24" viewBox="0 0 24 24" fill="none" xmlns="http://www.w3.org/2000/svg">
<path d="M6.32208 17.9925C5.94625 17.9925 5.64184 17.6881 5.64184 17.3123V9.11788C5.64184 8.74204 5.94625 8.43763 6.32208 8.43763C6.69792 8.43763 7.00233 8.74204 7.00233 9.11788V17.3123C7.00233 17.6881 6.69792 17.9925 6.32208 17.9925Z" fill="black"/>
<path d="M7.26763 17.047H5.37654C4.13254 17.047 3.12068 16.0351 3.12068 14.7911C3.12068 14.4153 3.42509 14.1109 3.80092 14.1109C4.17676 14.1109 4.48117 14.4153 4.48117 14.7911C4.48117 15.2852 4.88336 15.6865 5.37654 15.6865H7.26763C7.76165 15.6865 8.163 15.2843 8.163 14.7911C8.163 14.298 7.7608 13.8958 7.26763 13.8958H5.69201C4.44801 13.8958 3.43614 12.8839 3.43614 11.6399C3.43614 10.3959 4.44801 9.38402 5.69201 9.38402H6.95301C8.19701 9.38402 9.20888 10.3959 9.20888 11.6399C9.20888 12.0157 8.90447 12.3201 8.52863 12.3201C8.1528 12.3201 7.84839 12.0157 7.84839 11.6399C7.84839 11.1459 7.44619 10.7445 6.95301 10.7445H5.69201C5.19798 10.7445 4.79663 11.1467 4.79663 11.6399C4.79663 12.1331 5.19883 12.5353 5.69201 12.5353H7.26763C8.51163 12.5353 9.52349 13.5471 9.52349 14.7911C9.52349 16.0351 8.51163 17.047 7.26763 17.047Z" fill="black"/>
<path d="M13.5259 17.3429H12.0328C11.6569 17.3429 11.3525 17.0385 11.3525 16.6627C11.3525 16.2868 11.6569 15.9824 12.0328 15.9824H13.5259C13.9017 15.9824 14.2061 16.2868 14.2061 16.6627C14.2061 17.0385 13.9017 17.3429 13.5259 17.3429Z" fill="black"/>
<path d="M19.1167 17.3429H15.7239C15.3481 17.3429 15.0437 17.0385 15.0437 16.6627C15.0437 16.2868 15.3481 15.9824 15.7239 15.9824H19.1167C19.4925 15.9824 19.7969 16.2868 19.7969 16.6627C19.7969 17.0385 19.4925 17.3429 19.1167 17.3429Z" fill="black"/>
<path d="M19.1167 14.9893H17.3871C17.0113 14.9893 16.7069 14.6848 16.7069 14.309C16.7069 13.9332 17.0113 13.6288 17.3871 13.6288H19.1167C19.4925 13.6288 19.7969 13.9332 19.7969 14.309C19.7969 14.6848 19.4925 14.9893 19.1167 14.9893Z" fill="black"/>
<path d="M13.8592 15.2265H11.1382C10.7624 15.2265 10.458 14.9221 10.458 14.5462V11.8253C10.458 11.645 10.5294 11.4715 10.657 11.344L18.8199 3.18188C19.0852 2.91659 19.5163 2.91659 19.7816 3.18188L22.5026 5.90287C22.6301 6.03041 22.7016 6.20387 22.7016 6.38414C22.7016 6.56441 22.6301 6.73787 22.5026 6.86541L14.3396 15.0284C14.2121 15.1559 14.0386 15.2273 13.8584 15.2273L13.8592 15.2265ZM11.8185 13.866H13.5778L21.0605 6.38329L19.3012 4.624L11.8185 12.1067V13.866Z" fill="black"/>
<path d="M19.9814 9.10427C19.8071 9.10427 19.6336 9.03795 19.5002 8.9053L16.7792 6.18432C16.5139 5.91902 16.5139 5.48792 16.7792 5.22262C17.0445 4.95732 17.4756 4.95732 17.7409 5.22262L20.4618 7.9436C20.7271 8.2089 20.7271 8.64001 20.4618 8.9053C20.3292 9.03795 20.1557 9.10427 19.9814 9.10427Z" fill="black"/>
<path d="M21.3895 21.0171H2.61049C1.86052 21.0171 1.25 20.4066 1.25 19.6566V7.112C1.25 6.36203 1.86052 5.75151 2.61049 5.75151H12.7504C13.1262 5.75151 13.4307 6.05592 13.4307 6.43176C13.4307 6.80759 13.1262 7.112 12.7504 7.112H2.61049V19.6566H21.3895V10.1467C21.3895 9.77091 21.6939 9.4665 22.0698 9.4665C22.4456 9.4665 22.75 9.77091 22.75 10.1467V19.6566C22.75 20.4066 22.1395 21.0171 21.3895 21.0171Z" fill="black"/>
</svg>
