<svg width="24" height="24" viewBox="0 0 24 24" fill="none" xmlns="http://www.w3.org/2000/svg">
<path d="M14.625 19.5L20.25 19.5C20.6478 19.5 21.0294 19.342 21.3107 19.0607C21.592 18.7794 21.75 18.3978 21.75 18L21.75 12C21.75 11.6022 21.592 11.2206 21.3107 10.9393C21.0294 10.658 20.6478 10.5 20.25 10.5L14.625 10.5L14.625 9.75C14.625 8.95435 14.9411 8.19129 15.5037 7.62868C16.0663 7.06607 16.8294 6.75 17.625 6.75C17.8239 6.75 18.0147 6.67098 18.1553 6.53033C18.296 6.38968 18.375 6.19891 18.375 6C18.375 5.80109 18.296 5.61032 18.1553 5.46967C18.0147 5.32902 17.8239 5.25 17.625 5.25C16.4319 5.25124 15.288 5.72574 14.4444 6.56939C13.6007 7.41303 13.1262 8.55691 13.125 9.75L13.125 18C13.125 18.3978 13.283 18.7794 13.5643 19.0607C13.8456 19.342 14.2272 19.5 14.625 19.5ZM14.625 12L20.25 12L20.25 18L14.625 18L14.625 12ZM3.75 19.5L9.375 19.5C9.77283 19.5 10.1544 19.342 10.4357 19.0607C10.717 18.7794 10.875 18.3978 10.875 18L10.875 12C10.875 11.6022 10.717 11.2206 10.4357 10.9393C10.1544 10.658 9.77283 10.5 9.375 10.5L3.75 10.5L3.75 9.75C3.75 8.95435 4.06607 8.19129 4.62868 7.62868C5.19129 7.06607 5.95435 6.75 6.75 6.75C6.94891 6.75 7.13968 6.67098 7.28033 6.53033C7.42098 6.38968 7.5 6.19891 7.5 6C7.5 5.80109 7.42098 5.61032 7.28033 5.46967C7.13968 5.32902 6.94891 5.25 6.75 5.25C5.55691 5.25124 4.41304 5.72574 3.56939 6.56939C2.72575 7.41303 2.25124 8.5569 2.25 9.75L2.25 18C2.25 18.3978 2.40804 18.7794 2.68934 19.0607C2.97065 19.342 3.35217 19.5 3.75 19.5ZM3.75 12L9.375 12L9.375 18L3.75 18L3.75 12Z" fill="black"/>
</svg>
