<svg width="24" height="24" viewBox="0 0 24 24" fill="none" xmlns="http://www.w3.org/2000/svg">
<path d="M13.2806 12.5306L5.78061 20.0306C5.63988 20.1713 5.44901 20.2503 5.24999 20.2503C5.05097 20.2503 4.8601 20.1713 4.71936 20.0306C4.57863 19.8898 4.49957 19.699 4.49957 19.4999C4.49957 19.3009 4.57863 19.11 4.71936 18.9693L11.6897 11.9999L4.71936 5.03055C4.57863 4.88982 4.49957 4.69895 4.49957 4.49993C4.49957 4.30091 4.57863 4.11003 4.71936 3.9693C4.8601 3.82857 5.05097 3.74951 5.24999 3.74951C5.44901 3.74951 5.63988 3.82857 5.78061 3.9693L13.2806 11.4693C13.3503 11.539 13.4057 11.6217 13.4434 11.7127C13.4812 11.8038 13.5006 11.9014 13.5006 11.9999C13.5006 12.0985 13.4812 12.1961 13.4434 12.2871C13.4057 12.3782 13.3503 12.4609 13.2806 12.5306ZM20.7806 11.4693L13.2806 3.9693C13.1399 3.82857 12.949 3.74951 12.75 3.74951C12.551 3.74951 12.3601 3.82857 12.2194 3.9693C12.0786 4.11003 11.9996 4.30091 11.9996 4.49993C11.9996 4.69895 12.0786 4.88982 12.2194 5.03055L19.1897 11.9999L12.2194 18.9693C12.0786 19.11 11.9996 19.3009 11.9996 19.4999C11.9996 19.699 12.0786 19.8898 12.2194 20.0306C12.3601 20.1713 12.551 20.2503 12.75 20.2503C12.949 20.2503 13.1399 20.1713 13.2806 20.0306L20.7806 12.5306C20.8503 12.4609 20.9057 12.3782 20.9434 12.2871C20.9812 12.1961 21.0006 12.0985 21.0006 11.9999C21.0006 11.9014 20.9812 11.8038 20.9434 11.7127C20.9057 11.6217 20.8503 11.539 20.7806 11.4693Z" fill="black"/>
</svg>
