<svg width="24" height="24" viewBox="0 0 24 24" fill="none" xmlns="http://www.w3.org/2000/svg">
<path d="M16.5 7.5C17.0933 7.5 17.6734 7.32405 18.1667 6.99441C18.6601 6.66477 19.0446 6.19623 19.2716 5.64805C19.4987 5.09987 19.5581 4.49667 19.4424 3.91473C19.3266 3.33279 19.0409 2.79824 18.6213 2.37868C18.2018 1.95912 17.6672 1.6734 17.0853 1.55765C16.5033 1.44189 15.9001 1.5013 15.3519 1.72836C14.8038 1.95543 14.3352 2.33994 14.0056 2.83329C13.6759 3.32664 13.5 3.90666 13.5 4.5C13.5 5.29565 13.8161 6.05871 14.3787 6.62132C14.9413 7.18393 15.7043 7.5 16.5 7.5ZM16.5 3C16.7967 3 17.0867 3.08797 17.3334 3.2528C17.58 3.41762 17.7723 3.65189 17.8858 3.92598C17.9993 4.20007 18.0291 4.50167 17.9712 4.79264C17.9133 5.08361 17.7704 5.35088 17.5607 5.56066C17.3509 5.77044 17.0836 5.9133 16.7926 5.97118C16.5017 6.02906 16.2001 5.99935 15.926 5.88582C15.6519 5.77229 15.4176 5.58003 15.2528 5.33336C15.088 5.08668 15 4.79667 15 4.5C15 4.10218 15.158 3.72065 15.4393 3.43934C15.7206 3.15804 16.1022 3 16.5 3ZM15.75 15.75C15.75 16.9367 15.3981 18.0967 14.7388 19.0834C14.0795 20.0701 13.1425 20.8392 12.0461 21.2933C10.9497 21.7474 9.74334 21.8662 8.57946 21.6347C7.41557 21.4032 6.34647 20.8318 5.50736 19.9926C4.66824 19.1535 4.0968 18.0844 3.86529 16.9205C3.63377 15.7567 3.75259 14.5503 4.20672 13.4539C4.66085 12.3575 5.42988 11.4205 6.41658 10.7612C7.40327 10.1019 8.56331 9.75 9.75 9.75C9.94891 9.75 10.1397 9.82902 10.2803 9.96967C10.421 10.1103 10.5 10.3011 10.5 10.5C10.5 10.6989 10.421 10.8897 10.2803 11.0303C10.1397 11.171 9.94891 11.25 9.75 11.25C8.85998 11.25 7.98995 11.5139 7.24993 12.0084C6.50991 12.5029 5.93313 13.2057 5.59254 14.0279C5.25195 14.8502 5.16283 15.755 5.33646 16.6279C5.5101 17.5008 5.93868 18.3026 6.56802 18.932C7.19735 19.5613 7.99918 19.9899 8.87209 20.1635C9.74501 20.3372 10.6498 20.2481 11.4721 19.9075C12.2943 19.5669 12.9971 18.9901 13.4916 18.2501C13.9861 17.51 14.25 16.64 14.25 15.75C14.25 15.5511 14.329 15.3603 14.4697 15.2197C14.6103 15.079 14.8011 15 15 15C15.1989 15 15.3897 15.079 15.5303 15.2197C15.671 15.3603 15.75 15.5511 15.75 15.75ZM19.3303 12.2747C19.4005 12.3606 19.4508 12.4609 19.4776 12.5686C19.5043 12.6762 19.5068 12.7884 19.485 12.8972L17.985 20.3972C17.951 20.5671 17.8592 20.72 17.7252 20.8299C17.5912 20.9398 17.4233 20.9999 17.25 21C17.2002 21.0001 17.1506 20.995 17.1019 20.985C16.907 20.9459 16.7356 20.831 16.6254 20.6656C16.5152 20.5001 16.4751 20.2977 16.5141 20.1028L17.835 13.5H12C11.8683 13.5002 11.7388 13.4657 11.6246 13.3999C11.5104 13.3342 11.4156 13.2395 11.3496 13.1255C11.2837 13.0114 11.2489 12.882 11.2489 12.7503C11.2488 12.6185 11.2835 12.4891 11.3494 12.375L13.23 9.10313C11.9225 8.42015 10.4427 8.13746 8.97551 8.29035C7.5083 8.44324 6.11863 9.02494 4.98 9.96281C4.90565 10.0338 4.8175 10.0888 4.72101 10.1244C4.62452 10.1599 4.52175 10.1752 4.4191 10.1693C4.31644 10.1635 4.21609 10.1365 4.12427 10.0903C4.03246 10.044 3.95114 9.9793 3.88537 9.90026C3.8196 9.82123 3.77079 9.72951 3.74196 9.63081C3.71313 9.53211 3.70491 9.42854 3.7178 9.32653C3.73069 9.22452 3.76442 9.12624 3.81689 9.03782C3.86936 8.94939 3.93945 8.8727 4.02281 8.8125C5.50079 7.59288 7.32946 6.87682 9.24262 6.76857C11.1558 6.66032 13.0536 7.16551 14.6597 8.21063C14.8203 8.31524 14.9348 8.47739 14.9796 8.66377C15.0244 8.85015 14.9961 9.04662 14.9006 9.21281L13.2956 12H18.75C18.861 12 18.9707 12.0246 19.071 12.0721C19.1714 12.1196 19.2599 12.1888 19.3303 12.2747Z" fill="black"/>
</svg>
