<svg width="24" height="24" viewBox="0 0 24 24" fill="none" xmlns="http://www.w3.org/2000/svg">
<path d="M13.125 19.125C13.125 19.3475 13.059 19.565 12.9354 19.75C12.8118 19.935 12.6361 20.0792 12.4305 20.1644C12.225 20.2495 11.9988 20.2718 11.7805 20.2284C11.5623 20.185 11.3619 20.0778 11.2045 19.9205C11.0472 19.7632 10.94 19.5627 10.8966 19.3445C10.8532 19.1263 10.8755 18.9001 10.9607 18.6945C11.0458 18.4889 11.19 18.3132 11.375 18.1896C11.56 18.066 11.7775 18 12 18C12.2984 18 12.5845 18.1185 12.7955 18.3295C13.0065 18.5405 13.125 18.8266 13.125 19.125ZM19.2188 11.5097C17.165 9.88372 14.6223 8.99902 12.0028 8.99902C9.38335 8.99902 6.84064 9.88372 4.78689 11.5097C4.631 11.6333 4.53057 11.8137 4.50772 12.0113C4.48486 12.209 4.54144 12.4076 4.66502 12.5635C4.78859 12.7193 4.96903 12.8198 5.16665 12.8426C5.36427 12.8655 5.56287 12.8089 5.71877 12.6853C7.50739 11.2695 9.72169 10.4992 12.0028 10.4992C14.284 10.4992 16.4983 11.2695 18.2869 12.6853C18.3641 12.7465 18.4526 12.7919 18.5473 12.8189C18.642 12.8459 18.7412 12.854 18.839 12.8427C18.9369 12.8313 19.0315 12.8009 19.1176 12.753C19.2037 12.705 19.2795 12.6407 19.3406 12.5635C19.4018 12.4863 19.4472 12.3978 19.4742 12.303C19.5012 12.2083 19.5093 12.1092 19.498 12.0113C19.4867 11.9135 19.4562 11.8188 19.4083 11.7327C19.3604 11.6467 19.296 11.5709 19.2188 11.5097ZM16.1944 14.8622C14.9761 13.9768 13.5088 13.4999 12.0028 13.4999C10.4968 13.4999 9.02952 13.9768 7.81127 14.8622C7.6504 14.9793 7.54264 15.1555 7.51169 15.3521C7.48075 15.5487 7.52916 15.7495 7.64627 15.9103C7.76338 16.0712 7.9396 16.179 8.13616 16.2099C8.33272 16.2408 8.53352 16.1924 8.69439 16.0753C9.65581 15.3761 10.814 14.9995 12.0028 14.9995C13.1916 14.9995 14.3498 15.3761 15.3113 16.0753C15.3909 16.1333 15.4812 16.175 15.577 16.1981C15.6728 16.2212 15.7722 16.2252 15.8695 16.2099C15.9668 16.1946 16.0602 16.1602 16.1442 16.1088C16.2283 16.0574 16.3014 15.99 16.3594 15.9103C16.4174 15.8307 16.4591 15.7404 16.4822 15.6446C16.5053 15.5488 16.5093 15.4494 16.494 15.3521C16.4786 15.2548 16.4443 15.1614 16.3929 15.0774C16.3415 14.9933 16.274 14.9202 16.1944 14.8622Z" fill="black"/>
</svg>
